<svg id="Layer_1" data-name="Layer 1" xmlns="http://www.w3.org/2000/svg" viewBox="0 0 1500 1500"><defs><style>.cls-1{fill:#4d69e9;}.cls-2{fill:#a4b3f4;}.cls-3{fill:#778dee;}</style></defs><rect class="cls-1" x="1130" y="522" width="167" height="167" rx="35"/><rect class="cls-2" x="504" y="1078" width="167" height="167" rx="35"/><rect class="cls-2" x="817" y="1078" width="167" height="167" rx="35"/><rect class="cls-3" x="1130" y="1078" width="167" height="167" rx="35"/><rect class="cls-2" x="504" y="800" width="167" height="167" rx="35"/><rect class="cls-1" x="504" y="244" width="167" height="167" rx="35"/><rect class="cls-1" x="1130" y="800" width="167" height="167" rx="35"/><rect class="cls-3" x="504" y="522" width="167" height="167" rx="35"/><rect class="cls-1" x="817" y="522" width="167" height="167" rx="35"/><rect class="cls-2" x="203" y="1090" width="167" height="167" rx="35"/><rect class="cls-2" x="203" y="806" width="167" height="167" rx="35"/><rect class="cls-2" x="203" y="522" width="167" height="167" rx="35"/><rect class="cls-3" x="203" y="244" width="167" height="167" rx="35"/><rect class="cls-3" x="805" y="806" width="167" height="167" rx="35"/><rect class="cls-1" x="805" y="244" width="167" height="167" rx="35"/><rect class="cls-1" x="1130" y="244" width="167" height="167" rx="35"/></svg>