<svg id="Layer_1" data-name="Layer 1" xmlns="http://www.w3.org/2000/svg" viewBox="0 0 1500 1500"><defs><style>.cls-1{fill:#4d69e9;}.cls-2{fill:#bbc6f7;}</style></defs><rect class="cls-1" x="631.22" y="673.13" width="26.41" height="782.24" transform="translate(-599.28 1030.88) rotate(-57.27)"/><rect class="cls-1" x="582.93" y="253.3" width="25" height="602.92" transform="translate(616.7 -258.78) rotate(48.52)"/><rect class="cls-1" x="852.79" y="820.41" width="25" height="413" transform="translate(2128.1 1483.61) rotate(150)"/><rect class="cls-1" x="992.79" y="275.41" width="25" height="413" transform="translate(2028.59 39.54) rotate(131.01)"/><rect class="cls-1" x="1069.64" y="707.18" width="25" height="529.57" transform="translate(344.3 -281.56) rotate(17.59)"/><rect class="cls-1" x="301" y="398" width="25" height="413" transform="translate(627 1209) rotate(180)"/><rect class="cls-1" x="774" y="398" width="25" height="413" transform="translate(1420.23 1367.65) rotate(-167.25)"/><rect class="cls-1" x="567" y="131" width="25" height="413" transform="translate(242 917) rotate(-90)"/><rect class="cls-1" x="545" y="623" width="25" height="413" transform="translate(-272 1387) rotate(-90)"/><circle class="cls-2" cx="314" cy="338" r="94"/><circle class="cls-2" cx="845" cy="338" r="94"/><circle class="cls-2" cx="1194" cy="643" r="94"/><circle class="cls-2" cx="977" cy="1250" r="94"/><circle class="cls-2" cx="738" cy="810" r="94"/><circle class="cls-2" cx="314" cy="810" r="94"/></svg>