<svg id="Layer_1" data-name="Layer 1" xmlns="http://www.w3.org/2000/svg" viewBox="0 0 1500 1500"><defs><style>.cls-1{fill:#607aeb;}.cls-2{fill:#8ea0f1;}.cls-3{fill:#778dee;}.cls-4{fill:#b0bbea;}.cls-5{fill:#fff;}</style></defs><rect class="cls-1" x="113" y="1025" width="428" height="164" rx="35"/><rect class="cls-2" x="113" y="573" width="428" height="164" rx="35"/><rect class="cls-3" x="113" y="799" width="428" height="164" rx="35"/><rect class="cls-4" x="113" y="347" width="428" height="164" rx="35"/><rect class="cls-4" x="974" y="347" width="428" height="164" rx="35"/><rect class="cls-2" x="974" y="573" width="428" height="164" rx="35"/><rect class="cls-3" x="974" y="799" width="428" height="164" rx="35"/><rect class="cls-1" x="974" y="1025" width="428" height="164" rx="35"/><path class="cls-3" d="M932.31,389.06c5.46-.63,8.14,3,6,8L893.07,501.4c-2.18,5.05-6.65,5.57-9.93,1.15L815.4,411.26c-3.28-4.42-1.49-8.55,4-9.18Z"/><rect class="cls-3" x="530" y="541" width="383" height="25" rx="10" transform="translate(-187.74 538.95) rotate(-36.58)"/><rect class="cls-4" x="721.55" y="368.65" width="26.96" height="552.57" rx="10" transform="translate(-235.31 523.86) rotate(-34.15)"/><path class="cls-4" d="M899.24,792.85c4.3-3.44,8.49-1.8,9.32,3.64l17.11,112.38c.82,5.44-2.69,8.25-7.81,6.25L812,873.74c-5.13-2-5.8-6.45-1.51-9.88Z"/><path class="cls-2" d="M917,634.62c5.16-1.9,8.62,1,7.68,6.4l-19.28,112c-.93,5.42-5.15,7-9.38,3.46L808.59,683.8c-4.23-3.52-3.47-8,1.69-9.86Z"/><rect class="cls-1" x="723.04" y="785.33" width="25" height="383" rx="10" transform="translate(-487.15 992.16) rotate(-53.74)"/><path class="cls-1" d="M875.49,1018.83c2.93-4.66,7.42-4.49,10,.37l53.17,100.48c2.57,4.86.18,8.67-5.32,8.47L819.74,1124c-5.5-.21-7.6-4.18-4.68-8.84Z"/><rect class="cls-2" x="480.67" y="874.8" width="510.86" height="25.24" rx="10" transform="translate(-414.83 956.08) rotate(-53.74)"/><path class="cls-5" d="M262.42,420.71c0-9.39,5.06-17,14.38-21.43l3,5.73c-6.3,3.22-9.72,8-9.72,14.61l1.12,7.81L266,420.74a9.41,9.41,0,0,1,6.16-2.8c4.25,0,7.26,3,7.26,7.43,0,4.77-3.16,8-7.65,8C266.08,433.39,262.42,428.68,262.42,420.71Z"/><path class="cls-5" d="M310.47,417.89h8.58l.89,10.05h.25c4.49-7.21,11.19-11.13,18.8-11.13a18.26,18.26,0,0,1,8.6,1.8l-2.2,8.8a22.41,22.41,0,0,0-8-1.38c-6,0-12,3.1-16.51,11.69v24.37H310.47Z"/><path class="cls-5" d="M371.61,427.71c6.36-3.28,9.78-8.07,9.78-14.61l-1.18-7.81,5.15,6.69a9.65,9.65,0,0,1-6.11,2.75,7,7,0,0,1-7.31-7.38c0-4.83,3.22-8.07,7.65-8.07,5.76,0,9.35,4.71,9.35,12.73,0,9.39-5,16.91-14.32,21.38Z"/><path class="cls-5" d="M259.74,643.46c0-9.39,5.06-17,14.38-21.43l3,5.73c-6.3,3.22-9.72,8-9.72,14.61l1.11,7.81-5.15-6.69a9.45,9.45,0,0,1,6.17-2.8c4.25,0,7.26,3,7.26,7.43,0,4.77-3.17,8-7.65,8C263.39,656.13,259.74,651.42,259.74,643.46Z"/><path class="cls-5" d="M300.89,662.79c0-14.42,9.42-23.24,19.44-23.24,5.05,0,8.74,1.91,12.18,5.19h.24l-.49-7.45v-16h10.41v63.54h-8.5l-.79-5.16h-.3c-3.44,3.46-8.36,6.25-13.32,6.25C308.39,685.92,300.89,677.37,300.89,662.79ZM332.26,672V652.15a13.28,13.28,0,0,0-9.41-4c-6.17,0-11.3,5.27-11.3,14.5,0,9.58,4,14.63,10.72,14.63C325.93,677.3,329.19,675.67,332.26,672Z"/><path class="cls-5" d="M368.92,650.46c6.36-3.28,9.78-8.07,9.78-14.61L377.53,628l5.15,6.69a9.66,9.66,0,0,1-6.11,2.74,7,7,0,0,1-7.32-7.37c0-4.83,3.22-8.07,7.65-8.07,5.77,0,9.36,4.71,9.36,12.73,0,9.39-5,16.9-14.32,21.37Z"/><path class="cls-5" d="M256.74,867.46c0-9.39,5.06-17,14.38-21.43l3,5.73c-6.3,3.22-9.72,8-9.72,14.61l1.11,7.81-5.15-6.69a9.45,9.45,0,0,1,6.17-2.8c4.25,0,7.26,3,7.26,7.43,0,4.77-3.17,8-7.65,8C260.39,880.13,256.74,875.42,256.74,867.46Z"/><path class="cls-5" d="M301.4,865.12l12.46-.49h26.82v8.25H301.4Zm12.14-2.89c0-10.42,5.78-18,18.83-18a37.09,37.09,0,0,1,13.06,2.45l-2.13,7.69a24.62,24.62,0,0,0-9.74-1.9c-6.74,0-9.66,3.42-9.66,9.61v46.77H313.54Z"/><path class="cls-5" d="M365.92,874.46c6.36-3.28,9.78-8.07,9.78-14.61L374.53,852l5.15,6.69a9.66,9.66,0,0,1-6.11,2.74,7,7,0,0,1-7.32-7.37c0-4.83,3.22-8.07,7.65-8.07,5.77,0,9.36,4.71,9.36,12.73,0,9.39-5,16.9-14.32,21.37Z"/><path class="cls-5" d="M256.74,1093.46c0-9.39,5.06-17,14.38-21.43l3,5.73c-6.3,3.22-9.72,8-9.72,14.61l1.11,7.81-5.15-6.69a9.45,9.45,0,0,1,6.17-2.8c4.25,0,7.26,3,7.26,7.43,0,4.77-3.17,8-7.65,8C260.39,1106.13,256.74,1101.42,256.74,1093.46Z"/><path class="cls-5" d="M300.5,1090.63H309l.79,6.66h.36c4.23-4.28,9.2-7.74,15.94-7.74,10.22,0,14.82,6.52,14.82,17.91v27.37H330.5v-26c0-7.09-2.28-10.33-8.23-10.33-4.37,0-7.31,2.11-11.36,6.21v30.14H300.5Z"/><path class="cls-5" d="M365.92,1100.46c6.36-3.28,9.78-8.07,9.78-14.61l-1.17-7.81,5.15,6.69a9.66,9.66,0,0,1-6.11,2.74,7,7,0,0,1-7.32-7.37c0-4.83,3.22-8.07,7.65-8.07,5.77,0,9.36,4.71,9.36,12.73,0,9.39-5,16.9-14.32,21.37Z"/><path class="cls-5" d="M1196,425.46c.06-3.41.3-8,.48-11.39H1196c-1.89,3-4.1,6.05-6,9.07L1178,439h35.74v8.11H1167.4V440l26.21-35.47h12.07v57.28H1196Z"/><path class="cls-5" d="M1171,677.81c17.89-15.44,28.71-25.32,28.71-34.2,0-6-3.7-9.84-10.9-9.84-5,0-9.16,2.93-12.62,6.31l-5.74-5.72c5.59-5.61,11.29-8.89,19.72-8.89,11.78,0,19.48,7,19.48,17.58,0,10.2-10.34,20.68-23.63,32.53,3.44-.3,7.36-.55,10.55-.55h16.13v8.8H1171Z"/><path class="cls-5" d="M1170.78,880c0-19.36,8.29-29.51,21.31-29.51s21.3,10.15,21.3,29.51-8.29,29.94-21.3,29.94S1170.78,899.22,1170.78,880Zm33.2,0c0-15.65-5.07-21.33-11.89-21.33s-11.9,5.68-11.9,21.33,5.07,21.76,11.9,21.76S1204,895.62,1204,880Zm-18.07-.4a6.18,6.18,0,1,1,6.18,6.46A6.07,6.07,0,0,1,1185.91,879.58Z"/><path class="cls-5" d="M1175,1126.35h16v-37.5h-12.78v-6.58c7.25-1,11.44-2.41,15.49-4.72h7.7v48.8h13.94v8.48H1175Z"/></svg>