<svg xmlns="http://www.w3.org/2000/svg" viewBox="0 0 46 51.1"><defs><style>.cls-1{fill:#e6e6e6;}.cls-2,.cls-3{fill:none;stroke:#4d69e9;stroke-miterlimit:10;stroke-width:2px;}.cls-2{stroke-linecap:round;}</style></defs><g id="Layer_1" data-name="Layer 1"><path class="cls-1" d="M48.65,15.8a5.76,5.76,0,0,0-2.6-4.5L28.62,1.23a5.74,5.74,0,0,0-5.2,0L6,11.3a5.76,5.76,0,0,0-2.6,4.5V35.93A5.76,5.76,0,0,0,6,40.43L23.42,50.5a5.74,5.74,0,0,0,5.2,0L46.05,40.43a5.76,5.76,0,0,0,2.6-4.5Z" transform="translate(-3 -0.61)"/><path class="cls-1" d="M48.65,15.8a5.76,5.76,0,0,0-2.6-4.5L28.62,1.23a5.74,5.74,0,0,0-5.2,0L6,11.3a5.76,5.76,0,0,0-2.6,4.5V35.93A5.76,5.76,0,0,0,6,40.43L23.42,50.5a5.74,5.74,0,0,0,5.2,0L46.05,40.43a5.76,5.76,0,0,0,2.6-4.5Z" transform="translate(-3 -0.61)"/></g><g id="Layer_2" data-name="Layer 2"><path class="cls-2" d="M4,38l19.31,12a5.31,5.31,0,0,0,5.1,0L48,38" transform="translate(-3 -0.61)"/><path class="cls-1" d="M25.85-3.71" transform="translate(-3 -0.61)"/><path class="cls-3" d="M25.85-3.71" transform="translate(-3 -0.61)"/><path class="cls-1" d="M47.35,8.7" transform="translate(-3 -0.61)"/><path class="cls-3" d="M47.35,8.7" transform="translate(-3 -0.61)"/></g></svg>