<svg id="Layer_1" data-name="Layer 1" xmlns="http://www.w3.org/2000/svg" viewBox="0 0 1500 1500"><defs><style>.cls-1{fill:#4d69e9;}.cls-2{fill:#a4b3f4;}.cls-3{fill:#778dee;}.cls-4{fill:#e2e9ff;}.cls-5{fill:#fff;}.cls-6,.cls-7,.cls-8{fill:none;stroke-miterlimit:10;}.cls-6{stroke:#e2e9ff;stroke-width:20px;}.cls-7{stroke:#778dee;}.cls-7,.cls-8{stroke-linecap:round;stroke-width:22px;}.cls-8{stroke:#a4b3f4;}</style></defs><rect class="cls-1" x="46" y="590" width="329" height="230" rx="35"/><rect class="cls-2" x="1122" y="593" width="329" height="230" rx="35"/><rect class="cls-3" x="586" y="593" width="329" height="230" rx="35"/><rect class="cls-4" x="198" y="618" width="24" height="178"/><rect class="cls-5" x="375" y="313" width="17" height="131"/><rect class="cls-4" x="738" y="618" width="24" height="183"/><text/><circle class="cls-6" cx="1287" cy="707" r="77"/><line class="cls-6" x1="1230" y1="758" x2="1346" y2="658"/><path class="cls-3" d="M549,699.64,497.6,648.27a7.81,7.81,0,0,0-11,0l-4.66,4.67a7.71,7.71,0,0,0-2.28,5.5,7.87,7.87,0,0,0,2.28,5.57l30,30H416.65a7.65,7.65,0,0,0-7.65,7.65v6.61a8,8,0,0,0,8,8h95.24l-30.3,30.2a7.59,7.59,0,0,0-2.28,5.45,7.68,7.68,0,0,0,2.28,5.48l4.66,4.65a7.82,7.82,0,0,0,11,0L549,710.69a7.86,7.86,0,0,0,0-11.05Z"/><line class="cls-7" x1="278" y1="705" x2="440" y2="705"/><path class="cls-2" d="M1083.29,699.38,1031.92,648a7.81,7.81,0,0,0-11,0l-4.66,4.67a7.7,7.7,0,0,0-2.27,5.5,7.84,7.84,0,0,0,2.27,5.57l30,30H951a7.65,7.65,0,0,0-7.65,7.64V708a8,8,0,0,0,8,8h95.25l-30.31,30.2a7.71,7.71,0,0,0,0,10.93l4.66,4.65a7.8,7.8,0,0,0,11,0l51.37-51.37a7.86,7.86,0,0,0,0-11Z"/><line class="cls-8" x1="840" y1="705" x2="974.32" y2="704.74"/><circle class="cls-2" cx="840.5" cy="705.5" r="39.5"/><circle class="cls-3" cx="298.5" cy="705.5" r="39.5"/></svg>