<svg xmlns="http://www.w3.org/2000/svg" viewBox="0 0 293.29 35.18"><defs><style>.cls-1{fill:#fff;}.cls-2,.cls-6{fill:#585858;}.cls-3{fill:#ffe082;}.cls-4{fill:#ffc107;}.cls-5,.cls-7{fill:none;}.cls-5,.cls-8{stroke:#ccc;stroke-width:0.4px;}.cls-5,.cls-6,.cls-7,.cls-8{stroke-miterlimit:10;}.cls-6,.cls-7{stroke:#fff;stroke-width:0.5px;}.cls-8{fill:#f2f2f2;}</style></defs><g id="Layer_1" data-name="Layer 1"><path class="cls-1" d="M74.54,14.49q1.75,0,3,.09c.83.06,1.59.15,2.29.27a22.1,22.1,0,0,1,2.16.5l-.43,4c-.8,0-1.52-.08-2.18-.1s-1.37-.05-2.13-.06l-2.71,0a5,5,0,0,0-2.87.72,4.08,4.08,0,0,0-1.45,2.51,21.57,21.57,0,0,0-.44,4.91,21.57,21.57,0,0,0,.44,4.91,4.08,4.08,0,0,0,1.45,2.51,5,5,0,0,0,2.87.72c1.65,0,3,0,4.17-.08s2.25-.13,3.35-.25l.47,4A21.18,21.18,0,0,1,79,40a36.81,36.81,0,0,1-4.46.23A13.12,13.12,0,0,1,68.36,39,7.19,7.19,0,0,1,65,34.9a22.73,22.73,0,0,1-1-7.56,22.73,22.73,0,0,1,1-7.56,7.19,7.19,0,0,1,3.35-4.05A13.12,13.12,0,0,1,74.54,14.49Z" transform="translate(-12.32 -9.6)"/><path class="cls-1" d="M94.12,21.51a12.94,12.94,0,0,1,5.36.92,5.55,5.55,0,0,1,2.9,3,14.11,14.11,0,0,1,.88,5.5,14,14,0,0,1-.88,5.44,5.48,5.48,0,0,1-2.9,2.95,13.31,13.31,0,0,1-5.36.9,13.39,13.39,0,0,1-5.35-.9,5.56,5.56,0,0,1-2.93-2.95,13.73,13.73,0,0,1-.9-5.44,13.89,13.89,0,0,1,.9-5.5,5.63,5.63,0,0,1,2.93-3A13,13,0,0,1,94.12,21.51Zm0,3.89a4.28,4.28,0,0,0-2.16.46,2.65,2.65,0,0,0-1.12,1.66,13.88,13.88,0,0,0-.32,3.38,13.72,13.72,0,0,0,.32,3.35A2.55,2.55,0,0,0,92,35.89a5.41,5.41,0,0,0,4.32,0,2.55,2.55,0,0,0,1.12-1.64,13.72,13.72,0,0,0,.32-3.35,13.88,13.88,0,0,0-.32-3.38,2.65,2.65,0,0,0-1.12-1.66A4.28,4.28,0,0,0,94.12,25.4Z" transform="translate(-12.32 -9.6)"/><path class="cls-1" d="M113,21.51a12.16,12.16,0,0,1,3.62.54,8,8,0,0,1,3.08,1.76l-.36,2.45-2.2-.65a8,8,0,0,0-2.26-.29,3.58,3.58,0,0,0-1.8.4,2.4,2.4,0,0,0-1,1.55,13.29,13.29,0,0,0-.33,3.42,13,13,0,0,0,.31,3.22,2.44,2.44,0,0,0,1,1.51,3.19,3.19,0,0,0,1.71.42,5.31,5.31,0,0,0,3-.81c.46-.28,1-.62,1.55-1l.39,2.63a9.15,9.15,0,0,1-2.8,2.54,8.26,8.26,0,0,1-4.25,1,5.21,5.21,0,0,1-4.88-2.45,13.86,13.86,0,0,1-1.46-7,16.67,16.67,0,0,1,.74-5.56,5,5,0,0,1,2.25-2.82A7.63,7.63,0,0,1,113,21.51Zm11.06-7v25.2h-4.22l-.54-3.28-.57-.39V24.42l.21-.46c-.07-.75-.12-1.5-.16-2.25s-.05-1.53-.05-2.33V14.56Z" transform="translate(-12.32 -9.6)"/><path class="cls-1" d="M136.82,21.51q4.5,0,6.46,1.53a5.41,5.41,0,0,1,2,4.55A4.78,4.78,0,0,1,144,31.25c-.84.8-2.3,1.2-4.36,1.2h-9.94v-3h8.46c.82,0,1.34-.17,1.57-.52a2.63,2.63,0,0,0,.34-1.46,2,2,0,0,0-.74-1.74,4.19,4.19,0,0,0-2.35-.49,5.35,5.35,0,0,0-2.31.4,2.26,2.26,0,0,0-1.15,1.51,12.14,12.14,0,0,0-.32,3.24,11.76,11.76,0,0,0,.39,3.44A2.72,2.72,0,0,0,135,35.51a6.17,6.17,0,0,0,2.65.47c.81,0,1.83,0,3-.09s2.43-.16,3.65-.31l.51,3.28a10.39,10.39,0,0,1-2.38.79,24.26,24.26,0,0,1-2.73.42q-1.41.12-2.7.12a12.75,12.75,0,0,1-5.46-1,6,6,0,0,1-3-3,13,13,0,0,1-.91-5.26,13.66,13.66,0,0,1,.93-5.54,5.74,5.74,0,0,1,3-2.95A13.16,13.16,0,0,1,136.82,21.51Z" transform="translate(-12.32 -9.6)"/><path class="cls-1" d="M152.87,22l.65,3.52.5.47V39.76H148.7V22Zm8.68-.47L161,26.44h-1.47a10.32,10.32,0,0,0-2.63.36c-.91.24-2.06.6-3.46,1.08l-.36-3a15.56,15.56,0,0,1,3.78-2.52,9,9,0,0,1,3.71-.86Z" transform="translate(-12.32 -9.6)"/><path class="cls-1" d="M169.9,14.92V39.76h-5.47V14.92Z" transform="translate(-12.32 -9.6)"/><path class="cls-1" d="M178.86,22l.61,3.52.44.47V39.76h-5.33V22Zm8.1-.47q5,0,5,4.93V39.76h-5.33V28.1a2.36,2.36,0,0,0-.43-1.64,2,2,0,0,0-1.47-.45,6.9,6.9,0,0,0-2.38.45,27.31,27.31,0,0,0-3,1.38l-.26-3A16,16,0,0,1,183,22.37,10,10,0,0,1,187,21.51Z" transform="translate(-12.32 -9.6)"/><path class="cls-1" d="M208.13,22v3.49H194.7V22.16l3.46-.18Zm-5-4.94v17a1.83,1.83,0,0,0,.45,1.39,2.22,2.22,0,0,0,1.5.41h2.3l.58,3.6a10.67,10.67,0,0,1-1.59.38c-.62.11-1.25.19-1.87.25s-1.15.09-1.58.09a5.24,5.24,0,0,1-3.77-1.29,4.86,4.86,0,0,1-1.35-3.64l0-18.22Z" transform="translate(-12.32 -9.6)"/><path class="cls-1" d="M216.19,22v11.7a2.15,2.15,0,0,0,.49,1.58,2.22,2.22,0,0,0,1.57.47,6.14,6.14,0,0,0,2.21-.42A20.65,20.65,0,0,0,223.18,34l.43,2.92a15.9,15.9,0,0,1-3.82,2.52,9.45,9.45,0,0,1-3.85.82q-5.07,0-5.07-5V22ZM228,22V39.76h-4.22l-.61-3.49-.5-.51V22Z" transform="translate(-12.32 -9.6)"/><path class="cls-1" d="M236.28,14.13a1.42,1.42,0,0,1,1.59,1.62v1.91a1.42,1.42,0,0,1-1.59,1.62H234a1.42,1.42,0,0,1-1.59-1.62V15.75A1.42,1.42,0,0,1,234,14.13ZM237.76,22V39.76h-5.3V22Z" transform="translate(-12.32 -9.6)"/><path class="cls-1" d="M254.17,22v3.49H240.75V22.16L244.2,22Zm-5-4.94v17a1.83,1.83,0,0,0,.44,1.39,2.22,2.22,0,0,0,1.5.41h2.3l.58,3.6a10.37,10.37,0,0,1-1.59.38c-.62.11-1.24.19-1.87.25s-1.15.09-1.58.09a5.22,5.22,0,0,1-3.76-1.29,4.82,4.82,0,0,1-1.35-3.64l0-18.22Z" transform="translate(-12.32 -9.6)"/><path class="cls-1" d="M261,14.13a1.42,1.42,0,0,1,1.58,1.62v1.91A1.42,1.42,0,0,1,261,19.28h-2.31a1.42,1.42,0,0,1-1.58-1.62V15.75a1.42,1.42,0,0,1,1.58-1.62ZM262.45,22V39.76h-5.29V22Z" transform="translate(-12.32 -9.6)"/><path class="cls-1" d="M275.41,21.51a13,13,0,0,1,5.37.92,5.53,5.53,0,0,1,2.89,3,14.09,14.09,0,0,1,.89,5.5,13.93,13.93,0,0,1-.89,5.44,5.46,5.46,0,0,1-2.89,2.95,16.38,16.38,0,0,1-10.71,0,5.55,5.55,0,0,1-2.94-2.95,13.73,13.73,0,0,1-.9-5.44,13.89,13.89,0,0,1,.9-5.5,5.62,5.62,0,0,1,2.94-3A12.94,12.94,0,0,1,275.41,21.51Zm0,3.89a4.28,4.28,0,0,0-2.16.46,2.6,2.6,0,0,0-1.11,1.66,13.31,13.31,0,0,0-.33,3.38,13.16,13.16,0,0,0,.33,3.35,2.51,2.51,0,0,0,1.11,1.64,5.41,5.41,0,0,0,4.32,0,2.55,2.55,0,0,0,1.12-1.64A13.72,13.72,0,0,0,279,30.9a13.88,13.88,0,0,0-.32-3.38,2.65,2.65,0,0,0-1.12-1.66A4.28,4.28,0,0,0,275.41,25.4Z" transform="translate(-12.32 -9.6)"/><path class="cls-1" d="M292.48,22l.61,3.52.43.47V39.76h-5.33V22Zm8.1-.47q5,0,5,4.93V39.76h-5.33V28.1a2.41,2.41,0,0,0-.43-1.64,2,2,0,0,0-1.48-.45,6.9,6.9,0,0,0-2.38.45,28.18,28.18,0,0,0-3,1.38l-.25-3a15.79,15.79,0,0,1,3.9-2.49A10,10,0,0,1,300.58,21.51Z" transform="translate(-12.32 -9.6)"/><path class="cls-2" d="M24,43.53l.61.61a2.25,2.25,0,0,0,1.55.65h1.72a2.27,2.27,0,0,0,1.56-.65l.6-.61A2.16,2.16,0,0,0,30.66,42V37.46H23.33V42A2.2,2.2,0,0,0,24,43.53Z" transform="translate(-12.32 -9.6)"/><path class="cls-3" d="M27,15.47a.74.74,0,0,0,.74-.74V10.34a.74.74,0,1,0-1.47,0v4.39A.74.74,0,0,0,27,15.47Z" transform="translate(-12.32 -9.6)"/><path class="cls-3" d="M32.49,16.93a.73.73,0,0,0,1-.27l2.2-3.81a.73.73,0,1,0-1.24-.78l0,0-2.2,3.81A.73.73,0,0,0,32.49,16.93Z" transform="translate(-12.32 -9.6)"/><path class="cls-3" d="M37.52,21.23,41.33,19a.74.74,0,0,0,.31-1,.75.75,0,0,0-1-.31l-.06,0L36.78,20a.74.74,0,0,0-.22,1A.73.73,0,0,0,37.52,21.23Z" transform="translate(-12.32 -9.6)"/><path class="cls-3" d="M20.49,16.67a.75.75,0,0,0,1,.23.73.73,0,0,0,.25-1l-2.2-3.81a.73.73,0,0,0-1-.31.75.75,0,0,0-.31,1l0,0Z" transform="translate(-12.32 -9.6)"/><path class="cls-3" d="M12.66,19l3.81,2.2A.73.73,0,1,0,17.26,20l-.05,0-3.82-2.19A.73.73,0,0,0,12.66,19Z" transform="translate(-12.32 -9.6)"/><path class="cls-4" d="M20.8,33.09a.41.41,0,0,1,.17.26c.29,1.52,1.08,5.57,3.51,5.57h5c2.43,0,3.21-4.06,3.51-5.58a.49.49,0,0,1,.17-.25,9,9,0,0,0,1.37-12.58,8.28,8.28,0,0,0-.75-.82A9.61,9.61,0,0,0,27,16.93h-.16A9.7,9.7,0,0,0,20,20a9,9,0,0,0-2.52,6.5A9.1,9.1,0,0,0,20.8,33.09Z" transform="translate(-12.32 -9.6)"/><line class="cls-5" x1="11.01" y1="30.61" x2="18.34" y2="30.61"/><path class="cls-6" d="M30.9,40.79" transform="translate(-12.32 -9.6)"/><path class="cls-2" d="M23.21,40.79" transform="translate(-12.32 -9.6)"/><path class="cls-7" d="M23.21,40.79" transform="translate(-12.32 -9.6)"/><line class="cls-8" x1="11.01" y1="32.21" x2="18.34" y2="32.21"/></g></svg>