<svg id="Layer_1" data-name="Layer 1" xmlns="http://www.w3.org/2000/svg" viewBox="0 0 47.23 51.6"><defs><style>.cls-1{fill:#4d67e9;}.cls-2{fill:#4d53e9;}.cls-3,.cls-7{fill:#585858;}.cls-4{fill:#ffe082;}.cls-5{fill:#ffc107;}.cls-6,.cls-8{fill:none;}.cls-6,.cls-9{stroke:#ccc;stroke-width:0.4px;}.cls-6,.cls-7,.cls-8,.cls-9{stroke-miterlimit:10;}.cls-7,.cls-8{stroke:#fff;stroke-width:0.5px;}.cls-9{fill:#f2f2f2;}</style></defs><path class="cls-1" d="M49.62,17.36a9.62,9.62,0,0,0-4.33-7.5l-15-8.63a9.57,9.57,0,0,0-8.66,0l-15,8.63a9.62,9.62,0,0,0-4.33,7.5V34.64a9.62,9.62,0,0,0,4.33,7.5l15,8.63a9.57,9.57,0,0,0,8.66,0l15-8.63a9.62,9.62,0,0,0,4.33-7.5Z" transform="translate(-2.38 -0.2)"/><path class="cls-2" d="M27.09,18.13a1.89,1.89,0,0,0-1.73,0l-5.7,3.29a1.91,1.91,0,0,0-.87,1.5V29.5a1.91,1.91,0,0,0,.87,1.5l5.7,3.3a2,2,0,0,0,1.73,0l5.7-3.3a1.91,1.91,0,0,0,.87-1.5V22.92a1.91,1.91,0,0,0-.87-1.5Z" transform="translate(-2.38 -0.2)"/><path class="cls-3" d="M23.71,42.26l.61.61a2.25,2.25,0,0,0,1.55.65h1.72a2.29,2.29,0,0,0,1.56-.65l.6-.61a2.25,2.25,0,0,0,.65-1.55V36.19H23.07v4.52A2.2,2.2,0,0,0,23.71,42.26Z" transform="translate(-2.38 -0.2)"/><path class="cls-4" d="M26.73,14.2a.73.73,0,0,0,.73-.74V9.07a.73.73,0,1,0-1.46,0v4.39A.74.74,0,0,0,26.73,14.2Z" transform="translate(-2.38 -0.2)"/><path class="cls-4" d="M32.23,15.66a.73.73,0,0,0,1-.27l2.2-3.81a.73.73,0,1,0-1.24-.78l0,0L32,14.66A.73.73,0,0,0,32.23,15.66Z" transform="translate(-2.38 -0.2)"/><path class="cls-4" d="M37.25,20l3.82-2.2a.73.73,0,0,0-.68-1.3l-.06,0-3.81,2.2a.74.74,0,0,0-.22,1A.72.72,0,0,0,37.25,20Z" transform="translate(-2.38 -0.2)"/><path class="cls-4" d="M20.23,15.4a.74.74,0,0,0,1,.23.73.73,0,0,0,.26-1l-2.2-3.81a.73.73,0,1,0-1.3.68l0,.05Z" transform="translate(-2.38 -0.2)"/><path class="cls-4" d="M12.4,17.76,16.21,20a.73.73,0,0,0,1-.22.74.74,0,0,0-.22-1l-.06,0-3.81-2.2a.73.73,0,0,0-.73,1.27Z" transform="translate(-2.38 -0.2)"/><path class="cls-5" d="M20.54,31.82a.41.41,0,0,1,.17.26c.29,1.52,1.08,5.57,3.51,5.57h5c2.44,0,3.22-4.06,3.52-5.58a.49.49,0,0,1,.17-.25A9,9,0,0,0,34.3,19.24a8.28,8.28,0,0,0-.75-.82,9.61,9.61,0,0,0-6.82-2.76h-.16a9.7,9.7,0,0,0-6.85,3,9,9,0,0,0-2.52,6.5A9.12,9.12,0,0,0,20.54,31.82Z" transform="translate(-2.38 -0.2)"/><line class="cls-6" x1="20.68" y1="38.75" x2="28.01" y2="38.75"/><path class="cls-7" d="M30.64,39.52" transform="translate(-2.38 -0.2)"/><path class="cls-3" d="M22.94,39.52" transform="translate(-2.38 -0.2)"/><path class="cls-8" d="M22.94,39.52" transform="translate(-2.38 -0.2)"/><line class="cls-9" x1="20.68" y1="40.35" x2="28.01" y2="40.35"/></svg>