<svg id="Layer_1" data-name="Layer 1" xmlns="http://www.w3.org/2000/svg" viewBox="0 0 1500 1500"><defs><style>.cls-1{fill:#a4b3f4;}.cls-2{fill:#8ea0f1;}.cls-3{fill:#778dee;}.cls-4{fill:#607aeb;}.cls-5{fill:#4d69e9;}</style></defs><rect class="cls-1" x="1021" y="821" width="164" height="428" rx="35"/><rect class="cls-2" x="786" y="821" width="164" height="428" rx="35"/><rect class="cls-3" x="552" y="821" width="164" height="428" rx="35"/><rect class="cls-4" x="319" y="821" width="164" height="428" rx="35"/><rect class="cls-4" x="104" y="405" width="164" height="428" rx="35"/><rect class="cls-1" x="1240" y="413" width="164" height="428" rx="35"/><path class="cls-5" d="M398.29,793,334,704.28a5.3,5.3,0,0,1,3.94-8.65l22.57-2.47a12.05,12.05,0,0,1,0-1.9c1-16,.27-32-5.34-47.16A64.77,64.77,0,0,0,325,609.25a81.81,81.81,0,0,0-26.73-8.71l-.17,0a7.79,7.79,0,0,1-6.63-6.6,10.47,10.47,0,0,1-.09-3,6.85,6.85,0,0,1,6.34-6l.14,0c22.88-3.92,47.28.12,67.3,12,19.24,11.41,33.77,29.35,43.63,49.23A181.4,181.4,0,0,1,422,681.51c.38,1.46.76,2.92,1.14,4.36l22.57-2.47a5.68,5.68,0,0,1,5.76,8L407.93,791.93A5.65,5.65,0,0,1,398.29,793Z"/><path class="cls-5" d="M1218.78,601.2l-37.18,103a5.3,5.3,0,0,1-9.37,1.62l-14.74-17.27a12.54,12.54,0,0,1-1.6,1c-13.75,8.16-26.62,17.79-36,30.95a64.71,64.71,0,0,0-11.79,44.62,82,82,0,0,0,7.83,27l.08.16a7.79,7.79,0,0,1-1.73,9.2,10.52,10.52,0,0,1-2.48,1.79,6.86,6.86,0,0,1-8.52-1.87.94.94,0,0,0-.1-.1c-16.12-16.71-26.5-39.16-27.94-62.4-1.38-22.32,5.27-44.43,16.16-63.77a181,181,0,0,1,21.87-30.85l3-3.4-14.74-17.27a5.69,5.69,0,0,1,3.39-9.28l107.58-20.55A5.66,5.66,0,0,1,1218.78,601.2Z"/></svg>