<svg id="Layer_1" data-name="Layer 1" xmlns="http://www.w3.org/2000/svg" viewBox="0 0 1500 1500"><defs><style>.cls-1{fill:#607aeb;}.cls-2{fill:#8ea0f1;}.cls-3{fill:#778dee;}.cls-4{fill:#4967e9;}.cls-5{fill:#4d69e9;}.cls-6{fill:#2e56e8;}.cls-7{fill:#bbc6f7;}</style></defs><rect class="cls-1" x="536" y="1164" width="428" height="164" rx="35"/><rect class="cls-2" x="536" y="766" width="428" height="164" rx="35"/><rect class="cls-3" x="536" y="965" width="428" height="164" rx="35"/><path class="cls-4" d="M1195,525.54,1083.43,635.28c-4.58,4.31-2.72,12,3.49,13.13l31.22,8.84a18.58,18.58,0,0,0-.38,2.68c-2.38,22.73-7.22,45.18-18.72,65.2a92.52,92.52,0,0,1-50.92,41.92,117.27,117.27,0,0,1-39.74,5.94h-.24a11.12,11.12,0,0,0-10.92,7.72,15.13,15.13,0,0,0-.84,4.29,9.8,9.8,0,0,0,7.5,10l.19.06c31.32,11,66.66,11.07,97.7-.92,29.82-11.53,54.56-33.36,73.18-59a259.54,259.54,0,0,0,27-46.82l2.65-5.86,31.22,8.84a8.13,8.13,0,0,0,10-9.94l-37.48-152A8.09,8.09,0,0,0,1195,525.54Z"/><path class="cls-5" d="M506.2,776,436.08,636c-2.69-5.69-10.56-6.27-13.57-.71l-18,27a18.5,18.5,0,0,0-2.44-1.19c-20.89-9.25-40.77-20.75-56.28-37.85a92.54,92.54,0,0,1-24.24-61.34,117.32,117.32,0,0,1,6.57-39.64c0-.07.05-.15.08-.23a11.12,11.12,0,0,0-4-12.76,14.89,14.89,0,0,0-3.82-2.13,9.81,9.81,0,0,0-11.78,4.08,1.77,1.77,0,0,0-.12.17c-20.06,26.43-31,60-29.15,93.25,1.79,31.92,15,62.17,33.66,87.77a259.33,259.33,0,0,0,36.24,40.11l4.77,4.33-18,27a8.12,8.12,0,0,0,6.37,12.59L498.5,787.51A8.1,8.1,0,0,0,506.2,776Z"/><rect class="cls-6" x="73.97" y="310.94" width="428" height="164" rx="35" transform="translate(-66.44 58.69) rotate(-10.44)"/><rect class="cls-7" x="1135.97" y="186.94" width="164" height="428" rx="35" transform="translate(602.96 1526.09) rotate(-79.56)"/></svg>