<svg id="Layer_1" data-name="Layer 1" xmlns="http://www.w3.org/2000/svg" viewBox="0 0 1500 1500"><defs><style>.cls-1{fill:#4d69e9;}</style></defs><path class="cls-1" d="M29.59,693.66c0-28.95,13.74-52.27,39.06-66l8,17.66c-17.12,9.92-26.41,24.68-26.41,45l3,24.07-14-20.61c4.34-4.86,10.86-8.64,16.75-8.64,11.54,0,19.71,9.23,19.71,22.89,0,14.71-8.59,24.7-20.78,24.7C39.51,732.7,29.59,718.19,29.59,693.66Zm60.7,0c0-28.95,13.74-52.27,39.06-66l8,17.66c-17.12,9.92-26.4,24.68-26.4,45l3,24.07-14-20.61c4.34-4.86,10.86-8.64,16.75-8.64,11.54,0,19.71,9.23,19.71,22.89,0,14.71-8.59,24.7-20.78,24.7C100.21,732.7,90.29,718.19,90.29,693.66Z"/><path class="cls-1" d="M217.76,667H167.41V639.85H296.53V667H246.18V821.13H217.76Z"/><path class="cls-1" d="M361.86,639.85h33.52l51.77,181.28H416.9l-24-96.4c-4.82-19.12-9.93-39.69-14.28-59.75h-1c-4.51,20.06-9.28,40.63-14.1,59.75l-24.34,96.4H310.09Zm-21,106.84h74.91v25.47H340.84Z"/><path class="cls-1" d="M466.48,731c0-59.22,31.77-94.48,74-94.48,19.76,0,35.63,10.74,45.79,22.59L570.42,679.2c-7.95-9-17.47-14.63-29.93-14.63-26.51,0-44.76,24.85-44.76,65.46,0,41.38,18.25,66.37,45.48,66.37,13,0,23.4-6.8,32.25-17.92L589.32,798c-12.73,17-29.61,26.44-51,26.44C498.76,824.45,466.48,791.15,466.48,731Z"/><path class="cls-1" d="M609.07,729.66c0-59.6,25.77-93.14,62.84-93.14s62.85,33.54,62.85,93.14c0,60.73-25.78,94.79-62.85,94.79S609.07,790.39,609.07,729.66Zm96.44,0c0-41.58-13.26-65.09-33.6-65.09s-33.6,23.51-33.6,65.09c0,42.71,13.26,66.74,33.6,66.74S705.51,772.37,705.51,729.66Z"/><path class="cls-1" d="M906.42,731c0-59.22,31.77-94.48,74-94.48,19.75,0,35.63,10.74,45.79,22.59l-15.86,20.09c-8-9-17.48-14.63-29.93-14.63-26.52,0-44.77,24.85-44.77,65.46,0,41.38,18.25,66.37,45.48,66.37,13.05,0,23.4-6.8,32.26-17.92L1029.26,798c-12.73,17-29.6,26.44-51,26.44C938.71,824.45,906.42,791.15,906.42,731Z"/><path class="cls-1" d="M1095.1,639.85h33.51l51.77,181.28h-30.25l-24-96.4c-4.81-19.12-9.92-39.69-14.27-59.75h-1c-4.5,20.06-9.27,40.63-14.09,59.75l-24.34,96.4h-29.09Zm-21,106.84H1149v25.47h-74.91Z"/><path class="cls-1" d="M1244.29,667h-50.35V639.85h129.12V667h-50.34V821.13h-28.43Z"/><path class="cls-1" d="M1352.63,715.22c17.27-10.1,26.56-24.86,26.56-45L1376,646.14l14,20.61c-4.34,4.69-10.86,8.47-16.59,8.47-11.7,0-19.87-9.24-19.87-22.72,0-14.89,8.75-24.88,20.78-24.88,15.65,0,25.41,14.51,25.41,39.22,0,28.95-13.58,52.09-38.9,65.86Zm60.7,0c17.27-10.1,26.56-24.86,26.56-45l-3.18-24.07,14,20.61c-4.34,4.69-10.85,8.47-16.59,8.47-11.7,0-19.87-9.24-19.87-22.72,0-14.89,8.75-24.88,20.78-24.88,15.65,0,25.41,14.51,25.41,39.22,0,28.95-13.58,52.09-38.9,65.86Z"/></svg>