<?xml version="1.0" encoding="utf-8"?>
<!-- Generator: Adobe Illustrator 25.0.0, SVG Export Plug-In . SVG Version: 6.00 Build 0)  -->
<svg version="1.1" id="Layer_1" xmlns="http://www.w3.org/2000/svg" xmlns:xlink="http://www.w3.org/1999/xlink" x="0px" y="0px"
	 viewBox="0 0 100 100" style="enable-background:new 0 0 100 100;" xml:space="preserve">
<style type="text/css">
	.st0{fill-rule:evenodd;clip-rule:evenodd;fill:#374785;}
</style>
<desc>Created with Sketch.</desc>
<g id="Page-1">
	<g id="bubbles">
		<path id="Combined-Shape" class="st0" d="M11,18c3.9,0,7-3.1,7-7s-3.1-7-7-7s-7,3.1-7,7S7.1,18,11,18z M59,43c3.9,0,7-3.1,7-7
			s-3.1-7-7-7s-7,3.1-7,7S55.1,43,59,43z M16,36c1.7,0,3-1.3,3-3c0-1.7-1.3-3-3-3s-3,1.3-3,3C13,34.7,14.3,36,16,36z M79,67
			c1.7,0,3-1.3,3-3s-1.3-3-3-3s-3,1.3-3,3S77.3,67,79,67z M34,90c1.7,0,3-1.3,3-3s-1.3-3-3-3s-3,1.3-3,3S32.3,90,34,90z M90,14
			c1.7,0,3-1.3,3-3s-1.3-3-3-3s-3,1.3-3,3S88.3,14,90,14z M12,86c2.2,0,4-1.8,4-4s-1.8-4-4-4s-4,1.8-4,4S9.8,86,12,86z M40,21
			c2.2,0,4-1.8,4-4s-1.8-4-4-4s-4,1.8-4,4S37.8,21,40,21z M63,10c2.8,0,5-2.2,5-5s-2.2-5-5-5c-2.8,0-5,2.2-5,5S60.2,10,63,10z
			 M57,70c2.2,0,4-1.8,4-4c0-2.2-1.8-4-4-4s-4,1.8-4,4C53,68.2,54.8,70,57,70z M86,92c2.8,0,5-2.2,5-5s-2.2-5-5-5s-5,2.2-5,5
			S83.2,92,86,92z M32,63c2.8,0,5-2.2,5-5s-2.2-5-5-5s-5,2.2-5,5S29.2,63,32,63z M89,50c2.8,0,5-2.2,5-5s-2.2-5-5-5s-5,2.2-5,5
			S86.2,50,89,50z M80,29c1.1,0,2-0.9,2-2s-0.9-2-2-2s-2,0.9-2,2S78.9,29,80,29z M60,91c1.1,0,2-0.9,2-2s-0.9-2-2-2s-2,0.9-2,2
			S58.9,91,60,91z M35,41c1.1,0,2-0.9,2-2s-0.9-2-2-2s-2,0.9-2,2S33.9,41,35,41z M12,60c1.1,0,2-0.9,2-2s-0.9-2-2-2s-2,0.9-2,2
			S10.9,60,12,60z"/>
	</g>
</g>
</svg>
