<?xml version="1.0" encoding="utf-8"?>
<!-- Generator: Adobe Illustrator 25.0.0, SVG Export Plug-In . SVG Version: 6.00 Build 0)  -->
<svg version="1.1" id="Layer_1" xmlns="http://www.w3.org/2000/svg" xmlns:xlink="http://www.w3.org/1999/xlink" x="0px" y="0px"
	 viewBox="0 0 600 600" style="enable-background:new 0 0 600 600;" xml:space="preserve">
<style type="text/css">
	.st0{fill:#FCCD04;}
</style>
<g transform="translate(300,300)">
	<path class="st0" d="M86.4-125.7c22.5,23.2,35.6,52.5,63.2,88.6c27.6,36.2,69.8,79.1,74,123.2c4.2,44.2-29.4,89.5-73,114.6
		C107,225.9,53.5,231,5.2,223.8c-48.3-7.1-91.4-26.5-114.7-58.2c-23.3-31.8-26.8-76-29.3-113.5c-2.6-37.5-4.2-68.3-8.2-113.5
		s-10.5-104.7,13.6-127.4s78.7-8.4,122,7.2S63.9-148.9,86.4-125.7z"/>
</g>
</svg>
