<svg id="Layer_1" data-name="Layer 1" xmlns="http://www.w3.org/2000/svg" viewBox="0 0 1500 1500"><defs><style>.cls-1{fill:#4d69e9;}.cls-2{fill:#607aeb;}.cls-3{fill:#bbc6f7;}.cls-4{fill:#8ea0f1;}.cls-5{fill:#d2d9f9;}</style></defs><rect class="cls-1" x="885.48" y="836.3" width="26.35" height="496.48" rx="10" transform="translate(-487.14 832.78) rotate(-40.06)"/><rect class="cls-1" x="346.42" y="1088.37" width="496.48" height="26.35" rx="10" transform="translate(-631.16 847.78) rotate(-49.94)"/><rect class="cls-1" x="650.42" y="723.37" width="496.48" height="26.35" rx="10" transform="translate(-243.43 950.36) rotate(-49.94)"/><rect class="cls-1" x="310.42" y="402.37" width="496.48" height="26.35" rx="10" transform="translate(-118.93 575.71) rotate(-49.94)"/><rect class="cls-1" x="1148.48" y="443.3" width="26.35" height="496.48" rx="10" transform="translate(-172.52 909.83) rotate(-40.06)"/><rect class="cls-1" x="905.45" y="153.42" width="26.35" height="496.48" rx="10" transform="translate(-42.98 685.42) rotate(-40.06)"/><circle class="cls-2" cx="749" cy="217" r="106"/><circle class="cls-3" cx="1341" cy="904" r="106"/><circle class="cls-4" cx="1056" cy="565" r="106"/><circle class="cls-4" cx="418.07" cy="583.11" r="106"/><circle class="cls-5" cx="1056.06" cy="1283.08" r="106"/><circle class="cls-3" cx="752.05" cy="908.05" r="106"/><circle class="cls-5" cx="437.05" cy="1283.08" r="106"/></svg>